<svg xmlns="http://www.w3.org/2000/svg" xmlns:svg="http://www.w3.org/2000/svg" id="layer" width="400" height="400" x="0" y="0" version="1.1" viewBox="0 0 400 400" xml:space="preserve"><metadata id="metadata45"/><style id="style2" type="text/css">.st0{fill:#c00}.st1{fill:#fff}</style><g id="g55" transform="matrix(2.1119435,0,0,2.1119435,-6.9431839,-696.47039)"><circle id="circle34" cx="97.987" cy="424.476" r="71.025" class="st0" style="fill:#c00;stroke-width:.749996"/><path id="path36" d="m 131.88691,452.60133 -28.34985,-68.09964 c -0.675,-1.79999 -2.39999,-3.07499 -4.349982,-2.99999 -2.024989,-0.075 -3.82498,1.2 -4.499976,2.99999 L 63.712264,459.1263 h 10.649944 l 12.224936,-30.74984 36.674806,29.62484 c 1.05,1.05 2.47499,1.65 3.89998,1.725 2.77499,0.075 5.09998,-2.09999 5.17498,-4.94998 v -0.15 c -0.075,-0.67499 -0.225,-1.34999 -0.45,-2.02499 z M 99.262078,396.80162 117.63698,442.17639 89.887127,420.2765 Z" class="st1" style="fill:#fff;stroke-width:.749996"/></g></svg>